<svg width="30" height="31" viewBox="0 0 30 31" fill="none" xmlns="http://www.w3.org/2000/svg">
<path fill-rule="evenodd" clip-rule="evenodd" d="M15.0001 8.17856C12.3373 8.17856 10.1787 10.3372 10.1787 13C10.1787 15.6628 12.3373 17.8214 15.0001 17.8214C17.6629 17.8214 19.8216 15.6628 19.8216 13C19.8216 10.3372 17.6629 8.17856 15.0001 8.17856ZM15.0001 10.3214C13.5208 10.3214 12.3216 11.5207 12.3216 13C12.3216 14.4793 13.5208 15.6786 15.0001 15.6786C16.4795 15.6786 17.6787 14.4793 17.6787 13C17.6787 11.5207 16.4795 10.3214 15.0001 10.3214Z" fill="#F98AAE"/>
<path fill-rule="evenodd" clip-rule="evenodd" d="M13.9638 28.5975C14.1075 28.6962 14.2216 28.772 14.3011 28.8241L14.4309 28.9077C14.7787 29.1254 15.2209 29.1258 15.5687 28.9081L15.6992 28.8241C15.7787 28.772 15.8928 28.6962 16.0365 28.5975C16.3236 28.4002 16.7298 28.1113 17.2152 27.7385C18.1844 26.9942 19.4788 25.9088 20.7766 24.5439C23.3419 21.846 26.0716 17.8967 26.0716 13.2273C26.0716 10.2383 24.9108 7.3671 22.8373 5.24643C20.7629 3.12494 17.9443 1.92856 15.0001 1.92856C12.0559 1.92856 9.23734 3.12494 7.16299 5.24643C5.08945 7.3671 3.92871 10.2383 3.92871 13.2273C3.92871 17.8967 6.65836 21.846 9.22369 24.5439C10.5215 25.9088 11.8159 26.9942 12.7851 27.7385C13.2705 28.1113 13.6766 28.4002 13.9638 28.5975ZM15.0001 4.07142C12.64 4.07142 10.3715 5.03006 8.69515 6.74454C7.01797 8.45984 6.07157 10.7913 6.07157 13.2273C6.07157 17.0698 8.34192 20.5068 10.7766 23.0673C11.9788 24.3316 13.1844 25.3433 14.0902 26.039C14.4481 26.3138 14.7578 26.5382 15.0001 26.7083C15.2425 26.5382 15.5522 26.3138 15.9101 26.039C16.8159 25.3433 18.0215 24.3316 19.2237 23.0673C21.6584 20.5068 23.9287 17.0698 23.9287 13.2273C23.9287 10.7913 22.9823 8.45984 21.3051 6.74454C19.6287 5.03006 17.3603 4.07142 15.0001 4.07142Z" fill="#F98AAE"/>
</svg>
